<svg>
	<symbol id="more" viewBox="0 0 32 32" xmlns="http://www.w3.org/2000/svg">
		<path d="M19 13C19.5523 13 20 12.5523 20 12C20 11.4477 19.5523 11 19 11C18.4477 11 18 11.4477 18 12C18 12.5523 18.4477 13 19 13Z" stroke="#293148" stroke-opacity="0.6" stroke-width="2" stroke-linecap="round" stroke-linejoin="round"/>
        <path d="M12 13C12.5523 13 13 12.5523 13 12C13 11.4477 12.5523 11 12 11C11.4477 11 11 11.4477 11 12C11 12.5523 11.4477 13 12 13Z" stroke="#293148" stroke-opacity="0.6" stroke-width="2" stroke-linecap="round" stroke-linejoin="round"/>
        <path d="M5 13C5.55228 13 6 12.5523 6 12C6 11.4477 5.55228 11 5 11C4.44772 11 4 11.4477 4 12C4 12.5523 4.44772 13 5 13Z" stroke="#293148" stroke-opacity="0.6" stroke-width="2" stroke-linecap="round" stroke-linejoin="round"/>
	</symbol>
	<symbol id="plus" xmlns="http://www.w3.org/2000/svg" viewBox="0 0 24 24">
		<path fill-rule="evenodd" clip-rule="evenodd" d="M12 4C12.5523 4 13 4.44772 13 5V19C13 19.5523 12.5523 20 12 20C11.4477 20 11 19.5523 11 19V5C11 4.44772 11.4477 4 12 4Z"/>
		<path fill-rule="evenodd" clip-rule="evenodd" d="M4 12C4 11.4477 4.44772 11 5 11H19C19.5523 11 20 11.4477 20 12C20 12.5523 19.5523 13 19 13H5C4.44772 13 4 12.5523 4 12Z"/>
	</symbol>
	<symbol id="setting" xmlns="http://www.w3.org/2000/svg" viewBox="0 0 24 25" fill="none">
        <path d="M3 12.5528V16.5528C3.00036 16.9035 3.09294 17.2479 3.26846 17.5516C3.44398 17.8552 3.69626 18.1074 4 18.2828L11 22.2828C11.304 22.4583 11.6489 22.5507 12 22.5507C12.3511 22.5507 12.696 22.4583 13 22.2828L20 18.2828C20.3037 18.1074 20.556 17.8552 20.7315 17.5516C20.9071 17.2479 20.9996 16.9035 21 16.5528V8.55276C20.9996 8.20203 20.9071 7.85757 20.7315 7.55392C20.556 7.25027 20.3037 6.99812 20 6.82276L13 2.82276C12.696 2.64722 12.3511 2.55481 12 2.55481C11.6489 2.55481 11.304 2.64722 11 2.82276L4 6.82276C3.69626 6.99812 3.44398 7.25027 3.26846 7.55392C3.09294 7.85757 3.00036 8.20203 3 8.55276V9.55276M15 12.5528C15 14.2096 13.6569 15.5528 12 15.5528C10.3431 15.5528 9 14.2096 9 12.5528C9 10.8959 10.3431 9.55276 12 9.55276C13.6569 9.55276 15 10.8959 15 12.5528Z" stroke="white" stroke-opacity="0.45" stroke-width="2" stroke-linecap="round" stroke-linejoin="round"/>
    </symbol>
    <symbol id="vechicles" xmlns="http://www.w3.org/2000/svg" viewBox="0 0 24 25" fill="none">
        <path fill-rule="evenodd" clip-rule="evenodd" d="M12 3.55273C7.86586 3.55273 4.18305 6.86007 3.16847 10.802C3.03081 11.3368 2.48563 11.6588 1.95078 11.5212C1.41592 11.3835 1.09394 10.8383 1.2316 10.3035C2.43723 5.61926 6.81495 1.55273 12 1.55273C18.0751 1.55273 23 6.4776 23 12.5527C23 18.6279 18.0751 23.5527 12 23.5527C6.67713 23.5527 2.2393 19.773 1.22002 14.7517C1.11016 14.2104 1.45986 13.6826 2.0011 13.5727C2.54235 13.4629 3.07018 13.8126 3.18005 14.3538C4.01385 18.4614 7.64704 21.5527 12 21.5527C16.9706 21.5527 21 17.5233 21 12.5527C21 7.58217 16.9706 3.55273 12 3.55273Z" fill="white" fill-opacity="0.45"/>
        <circle cx="12" cy="12.5527" r="6" stroke="white" stroke-opacity="0.45" stroke-width="2"/>
        <circle cx="12" cy="12.5527" r="1" stroke="white" stroke-opacity="0.45" stroke-width="2"/>
    </symbol>
    <symbol id="profile" xmlns="http://www.w3.org/2000/svg" viewBox="0 0 24 25" fill="none">
        <path d="M12 11.5527C14.2091 11.5527 16 9.76187 16 7.55273C16 5.3436 14.2091 3.55273 12 3.55273C9.79086 3.55273 8 5.3436 8 7.55273C8 9.76187 9.79086 11.5527 12 11.5527Z" stroke="white" stroke-opacity="0.45" stroke-width="2" stroke-linecap="round" stroke-linejoin="round"/>
        <path d="M16.5 21.6949C17.888 21.445 18.9884 21.0643 19.5 20.5527C19.5719 19.9059 19.5 18.8861 19.5 18.8861C19.5 18.002 19.0786 17.1542 18.3284 16.5291C15.9595 14.5549 8.04053 14.5549 5.67158 16.5291C4.92143 17.1542 4.5 18.002 4.5 18.8861C4.5 18.8861 4.42813 19.9059 4.5 20.5527C5.01157 21.0643 6.11198 21.445 7.5 21.6949" stroke="white" stroke-opacity="0.45" stroke-width="2" stroke-linecap="round" stroke-linejoin="round"/>        
    </symbol>
	<symbol id="eng" xmlns="http://www.w3.org/2000/svg" viewBox="0 0 24 24" fill="none">
		<g clip-path="url(#clip0_74_1841)">
		<path d="M8.24995 22.6125V17.4375L4.38745 20.2875C5.47495 21.3 6.78745 22.0875 8.24995 22.6125Z" fill="#2A5F9E"/>
		<path d="M15.75 22.6125C17.2125 22.0875 18.525 21.3 19.6125 20.2875L15.75 17.4V22.6125Z" fill="#2A5F9E"/>
		<path d="M1.38745 15.75C1.49995 16.125 1.64995 16.4625 1.83745 16.8375L3.29995 15.75H1.38745Z" fill="#2A5F9E"/>
		<path d="M20.7 15.75L22.1625 16.8375C22.3125 16.5 22.4625 16.125 22.6125 15.75H20.7Z" fill="#2A5F9E"/>
		<path d="M8.81248 14.25H0.974976C1.08748 14.775 1.23748 15.2625 1.38748 15.75H3.29998L1.83748 16.8375C2.13748 17.475 2.47498 18.0375 2.88748 18.6L6.74998 15.75H8.24998V16.5L3.86248 19.725L4.38748 20.25L8.24998 17.4375V22.6125C8.73748 22.8 9.22498 22.9125 9.74998 23.025V14.25H8.81248Z" fill="white"/>
		<path d="M23.025 14.25H14.25V23.025C14.775 22.9125 15.2625 22.7625 15.75 22.6125V17.4375L19.6125 20.25C20.1375 19.7625 20.5875 19.2375 21.0375 18.675L17.025 15.75H19.575L21.8625 17.4375C21.975 17.25 22.0875 17.025 22.1625 16.8375L20.7 15.75H22.6125C22.7625 15.2625 22.9125 14.775 23.025 14.25Z" fill="white"/>
		<path d="M2.88745 18.6C3.18745 19.0125 3.48745 19.3875 3.82495 19.7625L8.24995 16.5375V15.7875H6.74995L2.88745 18.6Z" fill="#ED4C5C"/>
		<path d="M17.0625 15.75L21.075 18.675C21.225 18.4875 21.3375 18.3 21.4875 18.1125C21.525 18.075 21.525 18.0375 21.5625 18.0375C21.675 17.85 21.825 17.625 21.9375 17.4375L19.575 15.75H17.0625Z" fill="#ED4C5C"/>
		<path d="M15.75 1.38745V6.56245L19.6125 3.71245C18.525 2.69995 17.2125 1.91245 15.75 1.38745Z" fill="#2A5F9E"/>
		<path d="M8.24995 1.38745C6.78745 1.91245 5.47495 2.69995 4.38745 3.71245L8.24995 6.59995V1.38745Z" fill="#2A5F9E"/>
		<path d="M22.6125 8.24998C22.5 7.87498 22.35 7.53748 22.1625 7.16248L20.7 8.24998H22.6125Z" fill="#2A5F9E"/>
		<path d="M3.29995 8.24998L1.83745 7.16248C1.68745 7.53748 1.53745 7.87498 1.38745 8.24998H3.29995Z" fill="#2A5F9E"/>
		<path d="M15.1875 9.74998H22.9875C22.875 9.22498 22.725 8.73748 22.575 8.24998H20.6625L22.125 7.16248C21.825 6.52498 21.4875 5.96248 21.075 5.39998L17.25 8.24998H15.75V7.49998L20.1375 4.27498L19.6125 3.74998L15.75 6.56248V1.38748C15.2625 1.19998 14.775 1.08748 14.25 0.974976V9.74998H15.1875Z" fill="white"/>
		<path d="M0.974976 9.74998H9.74998V0.974976C9.22498 1.08748 8.73748 1.23748 8.24998 1.38748V6.56248L4.38748 3.74998C3.86248 4.23748 3.41248 4.76248 2.96248 5.32498L6.97498 8.24998H4.42498L2.13748 6.56248C2.02498 6.74998 1.91248 6.97498 1.83748 7.16248L3.29998 8.24998H1.38748C1.23748 8.73748 1.08748 9.22498 0.974976 9.74998Z" fill="white"/>
		<path d="M21.1125 5.40005C20.8125 4.98755 20.5125 4.61255 20.175 4.23755L15.75 7.46255V8.21255H17.25L21.1125 5.40005Z" fill="#ED4C5C"/>
		<path d="M6.93748 8.24995L2.96248 5.32495C2.81248 5.51245 2.69998 5.69995 2.54998 5.88745C2.51248 5.92495 2.51248 5.96245 2.47498 5.96245C2.36248 6.14995 2.21248 6.37495 2.09998 6.56245L4.38748 8.24995H6.93748Z" fill="#ED4C5C"/>
		<path d="M23.025 9.75H14.25V0.975C13.5375 0.825 12.7875 0.75 12 0.75C11.2125 0.75 10.4625 0.825 9.75 0.975V9.75H0.975C0.825 10.4625 0.75 11.2125 0.75 12C0.75 12.7875 0.825 13.5375 0.975 14.25H9.75V23.025C10.4625 23.175 11.2125 23.25 12 23.25C12.7875 23.25 13.5375 23.175 14.25 23.025V14.25H23.025C23.175 13.5375 23.25 12.7875 23.25 12C23.25 11.2125 23.175 10.4625 23.025 9.75Z" fill="#ED4C5C"/>
		</g>
		<defs>
		<clipPath id="clip0_74_1841">
		<rect width="24" height="24" fill="white"/>
		</clipPath>
		</defs>
	</symbol>
	<symbol id="arrow" xmlns="http://www.w3.org/2000/svg" viewBox="0 0 24 24" fill="none">
		<path d="M16 10L12 14L8 10" stroke="#293148" stroke-opacity="0.6" stroke-width="2" stroke-linecap="round" stroke-linejoin="round"/>
	</symbol>
	<symbol id="mini-arrow" xmlns="http://www.w3.org/2000/svg" viewBox="0 0 6 10" fill="none">
		<path d="M1 9L5 5L1 1" stroke="#29314899" stroke-width="2" stroke-linecap="round" stroke-linejoin="round"/>
	</symbol>
	<symbol id="rus" xmlns="http://www.w3.org/2000/svg" enable-background="new 0 0 512 512" viewBox="0 0 512 512">
		<circle cx="256" cy="256" fill="#f0f0f0" r="256"/><path d="m496.077 345.043c10.291-27.733 15.923-57.729 15.923-89.043s-5.632-61.31-15.923-89.043h-480.154c-10.29 27.733-15.923 57.729-15.923 89.043s5.633 61.31 15.923 89.043l240.077 22.261z" fill="#0052b4"/><path d="m256 512c110.071 0 203.906-69.472 240.077-166.957h-480.154c36.171 97.485 130.006 166.957 240.077 166.957z" fill="#d80027"/><g/><g/><g/><g/><g/><g/><g/><g/><g/><g/><g/><g/><g/><g/><g/>
	</symbol>
</svg>

